<svg xmlns="http://www.w3.org/2000/svg" width="1050" height="490" viewBox="0 0 1050 490">
<rect x="0" y="0" width="100%" height="100%" fill="white"/>
<style>text{font-family:Arial,Helvetica,sans-serif;fill:#111} .small{font-size:13px}.lab{font-size:15px}.title{font-size:21px;font-weight:700}.axis{stroke:#333;stroke-width:1}.ci{stroke:#111;stroke-width:2}.zero{stroke:#777;stroke-width:1;stroke-dasharray:5 5}</style>
<text x="20" y="32" class="title">P3-C0 corrected-29 A13 influence refresh</text>
<text x="20" y="55" class="small">H = task-level SPECIFIED − DELEGATED; primary row is frozen A13-C0, deletion rows are post-hoc sensitivity.</text>
<line x1="411.25" x2="411.25" y1="85" y2="415" class="zero"/>
<line x1="357.08" x2="357.08" y1="420" y2="426" class="axis"/>
<text x="357.08" y="445" text-anchor="middle" class="small">-0.1</text>
<line x1="411.25" x2="411.25" y1="420" y2="426" class="axis"/>
<text x="411.25" y="445" text-anchor="middle" class="small">+0.0</text>
<line x1="519.58" x2="519.58" y1="420" y2="426" class="axis"/>
<text x="519.58" y="445" text-anchor="middle" class="small">+0.2</text>
<line x1="627.92" x2="627.92" y1="420" y2="426" class="axis"/>
<text x="627.92" y="445" text-anchor="middle" class="small">+0.4</text>
<line x1="736.25" x2="736.25" y1="420" y2="426" class="axis"/>
<text x="736.25" y="445" text-anchor="middle" class="small">+0.6</text>
<line x1="844.58" x2="844.58" y1="420" y2="426" class="axis"/>
<text x="844.58" y="445" text-anchor="middle" class="small">+0.8</text>
<line x1="952.92" x2="952.92" y1="420" y2="426" class="axis"/>
<text x="952.92" y="445" text-anchor="middle" class="small">+1.0</text>
<text x="20" y="110" class="lab">Corrected-29 frozen primary</text>
<line x1="495.49" x2="920.09" y1="105" y2="105" class="ci"/>
<line x1="495.49" x2="495.49" y1="100" y2="110" class="ci"/>
<line x1="920.09" x2="920.09" y1="100" y2="110" class="ci"/>
<polygon points="719.22,105 727.22,97 735.22,105 727.22,113" fill="#111"/>
<text x="1030" y="110" text-anchor="end" class="small">+0.583 [+0.156, +0.939]</text>
<text x="20" y="152" class="lab">Leave out suite: banking</text>
<line x1="406.23" x2="901.33" y1="147" y2="147" class="ci"/>
<line x1="406.23" x2="406.23" y1="142" y2="152" class="ci"/>
<line x1="901.33" x2="901.33" y1="142" y2="152" class="ci"/>
<circle cx="677.78" cy="147" r="5" fill="#111"/>
<text x="1030" y="152" text-anchor="end" class="small">+0.492 [-0.009, +0.905]</text>
<text x="20" y="194" class="lab">Leave out suite: slack</text>
<line x1="449.94" x2="952.92" y1="189" y2="189" class="ci"/>
<line x1="449.94" x2="449.94" y1="184" y2="194" class="ci"/>
<line x1="952.92" x2="952.92" y1="184" y2="194" class="ci"/>
<circle cx="754.31" cy="189" r="5" fill="#111"/>
<text x="1030" y="194" text-anchor="end" class="small">+0.633 [+0.071, +1.000]</text>
<text x="20" y="236" class="lab">Leave out suite: travel</text>
<line x1="601.84" x2="952.92" y1="231" y2="231" class="ci"/>
<line x1="601.84" x2="601.84" y1="226" y2="236" class="ci"/>
<line x1="952.92" x2="952.92" y1="226" y2="236" class="ci"/>
<circle cx="791.71" cy="231" r="5" fill="#111"/>
<text x="1030" y="236" text-anchor="end" class="small">+0.702 [+0.352, +1.000]</text>
<text x="20" y="278" class="lab">Leave out suite: workspace</text>
<line x1="253.26" x2="930.35" y1="273" y2="273" class="ci"/>
<line x1="253.26" x2="253.26" y1="268" y2="278" class="ci"/>
<line x1="930.35" x2="930.35" y1="268" y2="278" class="ci"/>
<circle cx="651.99" cy="273" r="5" fill="#111"/>
<text x="1030" y="278" text-anchor="end" class="small">+0.444 [-0.292, +0.958]</text>
<text x="20" y="352" class="lab">Leave-one-task point estimates (n=25)</text>
<line x1="707.88" x2="791.71" y1="347" y2="347" class="ci"/>
<line x1="714.33" x2="714.33" y1="340" y2="354" stroke="#111" stroke-width="1"/>
<line x1="714.33" x2="714.33" y1="340" y2="354" stroke="#111" stroke-width="1"/>
<line x1="707.88" x2="707.88" y1="340" y2="354" stroke="#111" stroke-width="1"/>
<line x1="727.22" x2="727.22" y1="340" y2="354" stroke="#111" stroke-width="1"/>
<line x1="740.12" x2="740.12" y1="340" y2="354" stroke="#111" stroke-width="1"/>
<line x1="707.88" x2="707.88" y1="340" y2="354" stroke="#111" stroke-width="1"/>
<line x1="785.26" x2="785.26" y1="340" y2="354" stroke="#111" stroke-width="1"/>
<line x1="727.22" x2="727.22" y1="340" y2="354" stroke="#111" stroke-width="1"/>
<line x1="714.33" x2="714.33" y1="340" y2="354" stroke="#111" stroke-width="1"/>
<line x1="714.33" x2="714.33" y1="340" y2="354" stroke="#111" stroke-width="1"/>
<line x1="727.22" x2="727.22" y1="340" y2="354" stroke="#111" stroke-width="1"/>
<line x1="727.22" x2="727.22" y1="340" y2="354" stroke="#111" stroke-width="1"/>
<line x1="727.22" x2="727.22" y1="340" y2="354" stroke="#111" stroke-width="1"/>
<line x1="727.22" x2="727.22" y1="340" y2="354" stroke="#111" stroke-width="1"/>
<line x1="791.71" x2="791.71" y1="340" y2="354" stroke="#111" stroke-width="1"/>
<line x1="707.88" x2="707.88" y1="340" y2="354" stroke="#111" stroke-width="1"/>
<line x1="714.33" x2="714.33" y1="340" y2="354" stroke="#111" stroke-width="1"/>
<line x1="727.22" x2="727.22" y1="340" y2="354" stroke="#111" stroke-width="1"/>
<line x1="727.22" x2="727.22" y1="340" y2="354" stroke="#111" stroke-width="1"/>
<line x1="785.26" x2="785.26" y1="340" y2="354" stroke="#111" stroke-width="1"/>
<line x1="714.33" x2="714.33" y1="340" y2="354" stroke="#111" stroke-width="1"/>
<line x1="707.88" x2="707.88" y1="340" y2="354" stroke="#111" stroke-width="1"/>
<line x1="707.88" x2="707.88" y1="340" y2="354" stroke="#111" stroke-width="1"/>
<line x1="707.88" x2="707.88" y1="340" y2="354" stroke="#111" stroke-width="1"/>
<line x1="727.22" x2="727.22" y1="340" y2="354" stroke="#111" stroke-width="1"/>
<text x="1030" y="352" text-anchor="end" class="small">range +0.548 to +0.702</text>
<line x1="330" x2="980" y1="420" y2="420" class="axis"/>
<text x="655.00" y="475" text-anchor="middle" class="lab">H difference (SPECIFIED − DELEGATED)</text>
</svg>
